<svg width="32" height="32" viewBox="0 0 32 32" fill="none" xmlns="http://www.w3.org/2000/svg">
<g clip-path="url(#clip0_1138_2485)">
<path d="M31.24 25.15H29.72V26.67H31.24V25.15Z" fill="#000001"/>
<path d="M29.72 23.62H28.19V25.15H29.72V23.62Z" fill="#000001"/>
<path d="M29.72 12.96H28.19V16H29.72V12.96Z" fill="#000001"/>
<path d="M29.72 26.67H25.15V28.19H29.72V26.67Z" fill="#000001"/>
<path d="M28.19 22.1H26.67V23.62H28.19V22.1Z" fill="#000001"/>
<path d="M26.67 14.48H25.15V12.96H23.62V14.48H22.1V16H20.57V17.53H19.05V19.05H17.53V20.57H16V22.1H17.53V23.62H19.05V25.15H20.57V23.62H22.1V22.1H23.62V20.57H25.15V19.05H26.67V17.53H28.19V16H26.67V14.48Z" fill="#000001"/>
<path d="M28.19 11.4301H25.15V12.9601H28.19V11.4301Z" fill="#000001"/>
<path d="M25.15 28.1901H22.1V29.7201H25.15V28.1901Z" fill="#000001"/>
<path d="M22.1 11.4301H20.57V12.9601H22.1V11.4301Z" fill="#000001"/>
<path d="M22.1 5.33997H20.57V6.85997H22.1V5.33997Z" fill="#000001"/>
<path d="M22.1 29.72H5.34V31.24H22.1V29.72Z" fill="#000001"/>
<path d="M20.57 9.91003H19.05V11.43H20.57V9.91003Z" fill="#000001"/>
<path d="M20.57 6.85999H19.05V8.37999H20.57V6.85999Z" fill="#000001"/>
<path d="M16 22.1H14.48V26.67H19.05V25.15H16V22.1Z" fill="#000001"/>
<path d="M17.53 16V14.48H19.05V12.96H14.48V14.48H16V16H17.53Z" fill="#000001"/>
<path d="M17.53 5.33997H16V6.85997H17.53V5.33997Z" fill="#000001"/>
<path d="M11.43 20.57V19.05H9.91V22.1H14.48V20.57H11.43Z" fill="#000001"/>
<path d="M14.48 17.53H12.96V19.05H14.48V17.53Z" fill="#000001"/>
<path d="M12.96 25.15H9.91V26.67H12.96V25.15Z" fill="#000001"/>
<path d="M11.43 16V14.48H12.96V12.96H8.38V14.48H9.91V16H11.43Z" fill="#000001"/>
<path d="M19.05 9.91006V8.38006H16V6.86006H14.48V8.38006H12.96V3.81006H11.43V8.38006H9.91V6.86006H8.38V9.91006H19.05Z" fill="#000001"/>
<path d="M9.91002 23.62H6.86002V25.15H9.91002V23.62Z" fill="#000001"/>
<path d="M8.38002 9.91003H6.86002V11.43H8.38002V9.91003Z" fill="#000001"/>
<path d="M8.38002 5.33997H6.86002V6.85997H8.38002V5.33997Z" fill="#000001"/>
<path d="M6.86 11.4301H5.34V23.6201H6.86V11.4301Z" fill="#000001"/>
<path d="M6.86 8.38H5.34V9.91H6.86V8.38Z" fill="#000001"/>
<path d="M5.34 25.15H3.81V29.72H5.34V25.15Z" fill="#000001"/>
<path d="M5.34 6.85999H3.81V8.37999H5.34V6.85999Z" fill="#000001"/>
<path d="M3.81001 19.05H2.29001V25.15H3.81001V19.05Z" fill="#000001"/>
<path d="M2.29001 2.29001H23.62V9.91001H25.15V0.76001H0.76001V19.05H2.29001V2.29001Z" fill="#000001"/>
</g>
<defs>
<clipPath id="clip0_1138_2485">
<rect width="32" height="32" fill="white"/>
</clipPath>
</defs>
</svg>
