<svg width="32" height="32" viewBox="0 0 32 32" fill="none" xmlns="http://www.w3.org/2000/svg">
<g clip-path="url(#clip0_1138_91666)">
<path d="M31.24 24.38H29.71V25.9H31.24V24.38Z" fill="#000001"/>
<path d="M31.24 18.28H29.71V19.81H31.24V18.28Z" fill="#000001"/>
<path d="M31.24 12.19H29.71V13.71H31.24V12.19Z" fill="#000001"/>
<path d="M31.24 6.09003H29.71V7.62003H31.24V6.09003Z" fill="#000001"/>
<path d="M29.71 22.85H28.19V24.38H29.71V22.85Z" fill="#000001"/>
<path d="M29.71 19.81H28.19V21.33H29.71V19.81Z" fill="#000001"/>
<path d="M29.71 16.76H28.19V18.28H29.71V16.76Z" fill="#000001"/>
<path d="M29.71 13.71H28.19V15.23H29.71V13.71Z" fill="#000001"/>
<path d="M29.71 10.66H28.19V12.19H29.71V10.66Z" fill="#000001"/>
<path d="M29.71 7.62H28.19V9.14H29.71V7.62Z" fill="#000001"/>
<path d="M28.19 21.33H26.66V22.85H28.19V21.33Z" fill="#000001"/>
<path d="M28.19 15.23H26.66V16.76H28.19V15.23Z" fill="#000001"/>
<path d="M28.19 9.14001H26.66V10.66H28.19V9.14001Z" fill="#000001"/>
<path d="M8.38004 32H23.62V30.47H25.14V1.52H23.62V0H8.38004V1.52H6.85004V30.47H8.38004V32ZM16 1.52H19.04V3.04H16V1.52ZM12.95 1.52H14.47V3.04H12.95V1.52ZM8.38004 3.04H11.43V4.57H20.57V3.04H23.62V28.95H8.38004V3.04Z" fill="#000001"/>
<path d="M22.09 19.81H20.57V21.33H22.09V19.81Z" fill="#000001"/>
<path d="M20.57 15.23H19.04V16.76H20.57V15.23Z" fill="#000001"/>
<path d="M20.57 12.19H19.04V13.71H20.57V12.19Z" fill="#000001"/>
<path d="M20.57 21.33H17.52V22.85H20.57V21.33Z" fill="#000001"/>
<path d="M19.04 13.71H17.52V15.23H19.04V13.71Z" fill="#000001"/>
<path d="M17.52 19.81H14.47V21.33H17.52V19.81Z" fill="#000001"/>
<path d="M14.47 13.71H12.95V15.23H14.47V13.71Z" fill="#000001"/>
<path d="M14.47 21.33H11.43V22.85H14.47V21.33Z" fill="#000001"/>
<path d="M12.95 15.23H11.43V16.76H12.95V15.23Z" fill="#000001"/>
<path d="M12.95 12.19H11.43V13.71H12.95V12.19Z" fill="#000001"/>
<path d="M11.43 19.81H9.90002V21.33H11.43V19.81Z" fill="#000001"/>
<path d="M5.33 21.33H3.81V22.85H5.33V21.33Z" fill="#000001"/>
<path d="M5.33 15.23H3.81V16.76H5.33V15.23Z" fill="#000001"/>
<path d="M5.33 9.14001H3.81V10.66H5.33V9.14001Z" fill="#000001"/>
<path d="M3.81003 22.85H2.28003V24.38H3.81003V22.85Z" fill="#000001"/>
<path d="M3.81003 19.81H2.28003V21.33H3.81003V19.81Z" fill="#000001"/>
<path d="M3.81003 16.76H2.28003V18.28H3.81003V16.76Z" fill="#000001"/>
<path d="M3.81003 13.71H2.28003V15.23H3.81003V13.71Z" fill="#000001"/>
<path d="M3.81003 10.66H2.28003V12.19H3.81003V10.66Z" fill="#000001"/>
<path d="M3.81003 7.62H2.28003V9.14H3.81003V7.62Z" fill="#000001"/>
<path d="M2.28001 24.38H0.76001V25.9H2.28001V24.38Z" fill="#000001"/>
<path d="M2.28001 18.28H0.76001V19.81H2.28001V18.28Z" fill="#000001"/>
<path d="M2.28001 12.19H0.76001V13.71H2.28001V12.19Z" fill="#000001"/>
<path d="M2.28001 6.09003H0.76001V7.62003H2.28001V6.09003Z" fill="#000001"/>
</g>
<defs>
<clipPath id="clip0_1138_91666">
<rect width="32" height="32" fill="white"/>
</clipPath>
</defs>
</svg>
