<svg width="32" height="32" viewBox="0 0 32 32" fill="none" xmlns="http://www.w3.org/2000/svg">
<g clip-path="url(#clip0_1138_119774)">
<path d="M30.47 18.28V7.62H28.95V16.76H27.43V15.24H25.9V27.43H27.43V25.9H30.47V24.38H32V18.28H30.47Z" fill="#000001"/>
<path d="M25.9 12.19H24.38V15.24H25.9V12.19Z" fill="#000001"/>
<path d="M6.09 27.43V28.95H7.62V30.48H9.14V28.95H22.85V30.48H24.38V28.95H25.9V27.43H6.09Z" fill="#000001"/>
<path d="M24.38 18.28H22.85V21.33H24.38V18.28Z" fill="#000001"/>
<path d="M24.38 10.67H22.85V12.19H24.38V10.67Z" fill="#000001"/>
<path d="M22.85 16.76H19.81V18.28H22.85V16.76Z" fill="#000001"/>
<path d="M22.85 30.48H9.14001V32H22.85V30.48Z" fill="#000001"/>
<path d="M22.85 21.33H19.81V22.86H22.85V21.33Z" fill="#000001"/>
<path d="M19.81 18.28H18.28V21.33H19.81V18.28Z" fill="#000001"/>
<path d="M19.81 1.52H18.28V3.05H19.81V1.52Z" fill="#000001"/>
<path d="M18.28 24.38H13.71V25.9H18.28V24.38Z" fill="#000001"/>
<path d="M18.28 0H13.71V1.52H18.28V0Z" fill="#000001"/>
<path d="M13.71 18.28H12.19V21.33H13.71V18.28Z" fill="#000001"/>
<path d="M13.71 1.52H12.19V3.05H13.71V1.52Z" fill="#000001"/>
<path d="M12.19 16.76H9.14001V18.28H12.19V16.76Z" fill="#000001"/>
<path d="M22.85 10.67V9.14H16.76V4.57H18.28V3.05H13.71V4.57H15.23V9.14H9.14001V10.67H22.85Z" fill="#000001"/>
<path d="M12.19 21.33H9.14001V22.86H12.19V21.33Z" fill="#000001"/>
<path d="M9.14 18.28H7.62V21.33H9.14V18.28Z" fill="#000001"/>
<path d="M9.14 10.67H7.62V12.19H9.14V10.67Z" fill="#000001"/>
<path d="M7.62 12.19H6.09V15.24H7.62V12.19Z" fill="#000001"/>
<path d="M6.09 15.24H4.57V16.76H3.04V7.62H1.52V18.28H0V24.38H1.52V25.9H4.57V27.43H6.09V15.24Z" fill="#000001"/>
</g>
<defs>
<clipPath id="clip0_1138_119774">
<rect width="32" height="32" fill="white"/>
</clipPath>
</defs>
</svg>
