<svg width="32" height="32" viewBox="0 0 32 32" fill="none" xmlns="http://www.w3.org/2000/svg">
<g clip-path="url(#clip0_1138_29333)">
<path d="M32 5.33502H30.48V26.665H32V5.33502Z" fill="#000001"/>
<path d="M30.48 26.665H1.52002V28.195H30.48V26.665Z" fill="#000001"/>
<path d="M28.95 3.80499H25.91V5.33499H24.38V6.85499H22.86V8.38499H21.33V9.90499H19.81V11.425H18.29V12.955H16.76V14.475H15.24V17.525H18.29V15.995H19.81V14.475H21.33V12.955H22.86V11.425H24.38V9.90499H25.91V8.38499H27.43V6.85499H28.95V3.80499Z" fill="#000001"/>
<path d="M15.24 17.525H13.71V19.045H15.24V17.525Z" fill="#000001"/>
<path d="M13.71 11.425H12.19V12.955H13.71V11.425Z" fill="#000001"/>
<path d="M13.71 19.045H9.14001V20.575H13.71V19.045Z" fill="#000001"/>
<path d="M12.19 12.955H10.67V14.475H12.19V12.955Z" fill="#000001"/>
<path d="M12.19 9.90497H9.14001V11.425H12.19V9.90497Z" fill="#000001"/>
<path d="M10.67 14.475H9.14001V15.995H10.67V14.475Z" fill="#000001"/>
<path d="M9.14 15.995H7.62V19.045H9.14V15.995Z" fill="#000001"/>
<path d="M9.14 11.425H7.62V12.955H9.14V11.425Z" fill="#000001"/>
<path d="M7.61998 12.955H6.09998V14.475H7.61998V12.955Z" fill="#000001"/>
<path d="M4.56999 8.38498H19.81V6.85498H3.04999V25.145H28.95V9.90498H27.43V23.615H4.56999V8.38498Z" fill="#000001"/>
<path d="M22.86 3.80499H1.52002V5.33499H22.86V3.80499Z" fill="#000001"/>
<path d="M1.52 5.33502H0V26.665H1.52V5.33502Z" fill="#000001"/>
</g>
<defs>
<clipPath id="clip0_1138_29333">
<rect width="32" height="32" fill="white"/>
</clipPath>
</defs>
</svg>
