<svg width="32" height="32" viewBox="0 0 32 32" fill="none" xmlns="http://www.w3.org/2000/svg">
<path d="M28.955 22.85H3.05499V7.62H1.52499V25.9H3.05499V27.43H12.195V28.95H13.715V27.43H18.285V28.95H19.815V27.43H28.955V25.9H30.475V7.62H28.955V22.85Z" fill="#000001"/>
<path d="M28.955 6.09003H21.335V7.62003H28.955V6.09003Z" fill="#000001"/>
<path d="M12.195 30.47V28.95H10.675V32H21.335V28.95H19.815V30.47H12.195Z" fill="#000001"/>
<path d="M18.285 3.04999H13.715V4.56999H18.285V3.04999Z" fill="#000001"/>
<path d="M18.285 0H13.715V1.52H18.285V0Z" fill="#000001"/>
<path d="M16.765 19.81V18.28H18.285V16.76H19.815V15.24H21.335V13.71H18.285V6.09003H13.715V13.71H10.675V15.24H12.195V16.76H13.715V18.28H15.245V19.81H16.765Z" fill="#000001"/>
<path d="M10.675 6.09003H3.05499V7.62003H10.675V6.09003Z" fill="#000001"/>
</svg>
