<svg width="32" height="32" viewBox="0 0 32 32" fill="none" xmlns="http://www.w3.org/2000/svg">
<g clip-path="url(#clip0_1138_13706)">
<path d="M32 7.62H30.48V9.14H32V7.62Z" fill="#000001"/>
<path d="M27.43 15.24V16.76H24.39V18.29H27.43V27.43H21.34V28.95H27.43V30.48H32V15.24H27.43Z" fill="#000001"/>
<path d="M30.48 9.14001H28.96V10.67H30.48V9.14001Z" fill="#000001"/>
<path d="M28.9601 7.62H27.4301V9.14H28.9601V7.62Z" fill="#000001"/>
<path d="M27.43 9.14001H25.91V10.67H27.43V9.14001Z" fill="#000001"/>
<path d="M27.43 1.53003H25.91V3.05003H27.43V1.53003Z" fill="#000001"/>
<path d="M25.91 7.62H24.39V9.14H25.91V7.62Z" fill="#000001"/>
<path d="M24.39 15.24H22.86V16.76H24.39V15.24Z" fill="#000001"/>
<path d="M22.86 13.72H21.34V15.24H22.86V13.72Z" fill="#000001"/>
<path d="M21.34 22.86H19.81V25.91H16.77V28.95H18.29V27.43H21.34V22.86Z" fill="#000001"/>
<path d="M19.81 21.34H18.29V22.86H19.81V21.34Z" fill="#000001"/>
<path d="M19.81 3.05005H18.29V4.57005H19.81V3.05005Z" fill="#000001"/>
<path d="M18.29 19.8101H16.77V21.3401H18.29V19.8101Z" fill="#000001"/>
<path d="M18.29 16.76H16.77V18.29H18.29V16.76Z" fill="#000001"/>
<path d="M21.34 12.1899H15.24V13.7199H21.34V12.1899Z" fill="#000001"/>
<path d="M18.29 4.56995H16.77V6.09995H18.29V4.56995Z" fill="#000001"/>
<path d="M18.29 1.53003H16.77V3.05003H18.29V1.53003Z" fill="#000001"/>
<path d="M16.77 24.38H15.24V25.91H16.77V24.38Z" fill="#000001"/>
<path d="M16.77 18.29H15.24V19.81H16.77V18.29Z" fill="#000001"/>
<path d="M16.77 3.05005H15.24V4.57005H16.77V3.05005Z" fill="#000001"/>
<path d="M13.72 30.4799H9.15002V32H15.24V30.4799H16.77V28.95H13.72V30.4799Z" fill="#000001"/>
<path d="M15.24 13.72H13.72V15.24H15.24V13.72Z" fill="#000001"/>
<path d="M13.7199 27.4301H12.1899V28.9501H13.7199V27.4301Z" fill="#000001"/>
<path d="M15.2399 19.8101H12.1899V21.3401H15.2399V19.8101Z" fill="#000001"/>
<path d="M13.7199 15.24H12.1899V16.76H13.7199V15.24Z" fill="#000001"/>
<path d="M13.72 12.1899H10.67V13.7199H13.72V12.1899Z" fill="#000001"/>
<path d="M12.19 25.91H10.67V27.43H12.19V25.91Z" fill="#000001"/>
<path d="M12.19 16.76H10.67V19.81H12.19V16.76Z" fill="#000001"/>
<path d="M12.19 6.09998H10.67V7.61998H12.19V6.09998Z" fill="#000001"/>
<path d="M10.67 13.72H9.15002V15.24H10.67V13.72Z" fill="#000001"/>
<path d="M9.14999 28.95H7.62V30.4799H9.14999V28.95Z" fill="#000001"/>
<path d="M9.14999 15.24H7.62V16.76H9.14999V15.24Z" fill="#000001"/>
<path d="M4.58 27.43V18.29H7.62V16.76H4.58V15.24H0V30.48H4.58V28.95H7.62V27.43H4.58Z" fill="#000001"/>
<path d="M7.61998 0H6.09998V1.53H7.61998V0Z" fill="#000001"/>
<path d="M4.58003 12.19V10.67H6.10003V9.14H4.58003V7.62H3.05003V9.14H1.53003V10.67H3.05003V12.19H4.58003Z" fill="#000001"/>
</g>
<defs>
<clipPath id="clip0_1138_13706">
<rect width="32" height="32" fill="white"/>
</clipPath>
</defs>
</svg>
