<svg width="32" height="32" viewBox="0 0 32 32" fill="none" xmlns="http://www.w3.org/2000/svg">
<g clip-path="url(#clip0_1138_29512)">
<path d="M32 22.86H28.95V25.91H32V22.86Z" fill="#000001"/>
<path d="M28.9501 25.91H27.4301V27.43H28.9501V25.91Z" fill="#000001"/>
<path d="M28.95 16.76V12.19H30.48V7.62H25.91V12.19H27.43V16.76H28.95Z" fill="#000001"/>
<path d="M27.43 27.4301H25.91V28.9601H27.43V27.4301Z" fill="#000001"/>
<path d="M27.43 16.76H25.91V18.29H27.43V16.76Z" fill="#000001"/>
<path d="M25.91 28.96H24.38V32H25.91V28.96Z" fill="#000001"/>
<path d="M25.91 18.29H24.38V19.81H25.91V18.29Z" fill="#000001"/>
<path d="M24.38 19.8101H22.86V21.3401H24.38V19.8101Z" fill="#000001"/>
<path d="M22.86 21.34H21.33V32H22.86V21.34Z" fill="#000001"/>
<path d="M22.8601 16.76V4.57H24.3801V0H19.8101V4.57H21.3301V16.76H22.8601ZM21.3301 1.53H22.8601V3.05H21.3301V1.53Z" fill="#000001"/>
<path d="M21.3301 16.76H19.8101V18.29H21.3301V16.76Z" fill="#000001"/>
<path d="M19.81 18.29H18.29V32H19.81V18.29Z" fill="#000001"/>
<path d="M13.71 15.24H15.24V32H16.76V15.24H18.29V10.67H13.71V15.24Z" fill="#000001"/>
<path d="M13.7099 18.29H12.1899V32H13.7099V18.29Z" fill="#000001"/>
<path d="M12.19 16.76H10.67V18.29H12.19V16.76Z" fill="#000001"/>
<path d="M10.67 24.38H9.14001V32H10.67V24.38Z" fill="#000001"/>
<path d="M10.67 9.14995H12.19V4.56995H7.62V9.14995H9.14V16.7599H10.67V9.14995Z" fill="#000001"/>
<path d="M9.14 22.86H7.62V24.38H9.14V22.86Z" fill="#000001"/>
<path d="M7.61998 28.96H6.09998V32H7.61998V28.96Z" fill="#000001"/>
<path d="M7.61998 21.34H6.09998V22.86H7.61998V21.34Z" fill="#000001"/>
<path d="M7.62005 19.81V15.24H3.05005V19.81H4.57005V21.34H6.10005V19.81H7.62005ZM4.57005 18.29V16.76H6.10005V18.29H4.57005Z" fill="#000001"/>
<path d="M6.09995 27.4301H4.56995V28.9601H6.09995V27.4301Z" fill="#000001"/>
<path d="M4.57005 25.91H3.05005V27.43H4.57005V25.91Z" fill="#000001"/>
<path d="M3.05 22.86H0V25.91H3.05V22.86Z" fill="#000001"/>
</g>
<defs>
<clipPath id="clip0_1138_29512">
<rect width="32" height="32" fill="white"/>
</clipPath>
</defs>
</svg>
